# xmcd
#
# Track frame offsets:
#	150
#	4171
#	16189
#	27687
#	35674
#	46312
#	60532
#	75408
#	90230
#	104205
#	125385
#	129975
#	151097
#	163739
#	179443
#	195868
#	209263
#	227759
#	238677
#	253513
#	271071
#	285783
#	300674
#	309789
#
# Disc length: 4208 seconds
# Revision: 0
# Processed by: cddbd v1.5.2PL0 Copyright (c) Steve Scherf et al.
# Submitted via: dBpowerAMP V12.0
#
DISCID=29106e18
DTITLE=Various Artist - Front Porch Music
DYEAR=1900
DGENRE=Bluegrass
TTITLE0=Little Sparrow - Sing a Little While in the Wilderness
TTITLE1=Elk River Ramblers - Jeff Davis
TTITLE2=Aurora Celtic - Crows in the Kitchen
TTITLE3=Hell for Certain String Band - Cold Frosty Morning
TTITLE4=The Bing Brothers Band - Sandy River Belle
TTITLE5=Juanita Fireball and the Continental Drifters - Whoa Mule
TTITLE6=The Black Mountain Bluegrass Boys - Dark Holler
TTITLE7=Sugar Run - Angelina Baker
TTITLE8=Hans Creek String Band - Handsome Molly
TTITLE9=Hell for Certain String Band - The Cuckoo
TTITLE10=Bill Hefner - Elzick's Farewell
TTITLE11=Michael and Carrie Kline - Working Shoes
TTITLE12=The Hefner Family - Shenandoah
TTITLE13=Sugar Run - Cold Mountain Rain
TTITLE14=The Elk River Ramblers - Red Wing
TTITLE15=Carrie and Michael Kline - Turtle Dove
TTITLE16=Little Sparrow - Sweet Hour of Prayer/Black-Eyed Susie/Cluck Old Hen
TTITLE17=The Black Mountain Bluegrass Boys - Million Lonely Days
TTITLE18=Aurora Celtic - Alice's Reel/Firewalker
TTITLE19=Hans Creek String Band - Ragtime Annie
TTITLE20=Juanita Fireball and The Continental Drifters - Durang's Hornpipe/Arkansas Traveler
TTITLE21=Sugar Run - Whoopty Liza
TTITLE22=The Bing Brothers Band - 28th of January
TTITLE23=Bill Hefner - Until Then
EXTD=
EXTT0=
EXTT1=
EXTT2=
EXTT3=
EXTT4=
EXTT5=
EXTT6=
EXTT7=
EXTT8=
EXTT9=
EXTT10=
EXTT11=
EXTT12=
EXTT13=
EXTT14=
EXTT15=
EXTT16=
EXTT17=
EXTT18=
EXTT19=
EXTT20=
EXTT21=
EXTT22=
EXTT23=
PLAYORDER=
